<svg width="200" height="220" viewBox="0 0 200 220" fill="none" xmlns="http://www.w3.org/2000/svg">
  <rect x="62" y="18" width="12" height="34" rx="6" fill="#1C64F2"/>
  <rect x="126" y="18" width="12" height="34" rx="6" fill="#1C64F2"/>
  <rect x="40" y="54" width="120" height="92" rx="32" fill="#EEF4FF" stroke="#1C64F2" stroke-width="6"/>
  <circle cx="46" cy="90" r="12" fill="#155EEF"/>
  <circle cx="154" cy="90" r="12" fill="#155EEF"/>
  <rect x="58" y="76" width="84" height="32" rx="16" fill="#155EEF"/>
  <rect x="58" y="80" width="84" height="24" rx="12" fill="#1C64F2"/>
  <circle cx="82" cy="92" r="7" fill="#F5D90A"/>
  <circle cx="118" cy="92" r="7" fill="#F5D90A"/>
  <rect x="94" y="92" width="12" height="6" rx="3" fill="#F5D90A"/>
  <rect x="26" y="108" width="26" height="62" rx="12" fill="#1C64F2"/>
  <rect x="148" y="108" width="26" height="62" rx="12" fill="#1C64F2"/>
  <rect x="26" y="118" width="26" height="18" rx="9" fill="#EEF4FF"/>
  <rect x="148" y="118" width="26" height="18" rx="9" fill="#EEF4FF"/>
  <rect x="58" y="134" width="84" height="78" rx="34" fill="#EEF4FF" stroke="#1C64F2" stroke-width="6"/>
  <rect x="78" y="160" width="44" height="24" rx="12" fill="#1C64F2"/>
  <rect x="90" y="158" width="20" height="12" rx="6" fill="#0B4DD5"/>
  <circle cx="64" cy="136" r="14" fill="#1C64F2"/>
  <circle cx="136" cy="136" r="14" fill="#1C64F2"/>
  <path d="M60 46C60 34.9543 68.9543 26 80 26H120C131.046 26 140 34.9543 140 46V48C140 59.0457 131.046 68 120 68H80C68.9543 68 60 59.0457 60 48V46Z" fill="#EEF4FF" stroke="#1C64F2" stroke-width="6"/>
  <circle cx="80" cy="46" r="8" fill="#155EEF"/>
  <circle cx="120" cy="46" r="8" fill="#155EEF"/>
  <path d="M92 116C92 109.373 97.3726 104 104 104H116C122.627 104 128 109.373 128 116V124C128 130.627 122.627 136 116 136H104C97.3726 136 92 130.627 92 124V116Z" fill="white" stroke="#1C64F2" stroke-width="4"/>
  <path d="M108 116L113 121.5L108 127" stroke="#0B4DD5" stroke-width="4" stroke-linecap="round" stroke-linejoin="round"/>
</svg>
